# xmcd
#
# Track frame offsets: 
#        150
#        15720
#        33915
#
# Disc length: 737 seconds
#
# Revision: 3
# Processed by: cddbd v1.5.2PL0 Copyright (c) Steve Scherf et al.
# Submitted via: ExactAudioCopy v0.95b4
#
DISCID=1802df03
DTITLE=Craig David - Walking Away [CD Single 1)
DYEAR=2000
DGENRE=Vocal
TTITLE0=Walking Away
TTITLE1=Human
TTITLE2=Seven Days (Live Vibe in Amsterdam)
EXTD=ID3G:   2
EXTT0=
EXTT1=
EXTT2=
PLAYORDER=
